PathFileType	4	(X/Y/Z)	C:\Users\Public\Documents\Vicon Data\AADs Machine\Fixing_spring_distance_56\90_lb_Spring\Brian_90_01.trc
DataRate	CameraRate	NumFrames	NumMarkers	Units	OrigDataRate	OrigDataStartFrame	OrigNumFrames
100.0	100.0	15	8	mm	100.0	163	1302	
Frame#	Time	SpringTop			MMAL			LMAL			Shank			Heel			Foot			Toe			MP5			
		X1	Y1	Z1	X2	Y2	Z2	X3	Y3	Z3	X4	Y4	Z4	X5	Y5	Z5	X6	Y6	Z6	X7	Y7	Z7	X8	Y8	Z8	
163	1.62	-355.40591	147.08673	-608.51367	-289.12503	103.29246	-671.96643	-272.05182	110.48611	-550.55847	-212.92989	273.03262	-621.48328	-356.90021	85.75518	-607.38928	-178.4662	56.90469	-613.77057	-105.19083	38.258953	-630.19617	-164.78362	39.421314	-561.8678
164	1.63	-355.38394	147.17964	-608.55377	-289.11789	103.27341	-671.94855	-272.01181	110.48611	-550.586	-212.79848	272.95413	-621.45233	-356.93716	85.792473	-607.42468	-178.43938	56.909351	-613.7829	-105.18088	38.261215	-630.19958	-164.76215	39.412125	-561.90155
165	1.64	-355.36002	147.2328	-608.54468	-289.11755	103.32398	-671.96533	-272.03903	110.4834	-550.51819	-212.62099	272.89926	-621.38751	-356.89398	85.791649	-607.4151	-178.44336	56.901798	-613.76349	-105.2219	38.271217	-630.18829	-164.75531	39.391827	-561.86566
166	1.65	-355.34439	147.26682	-608.60773	-289.11502	103.30009	-671.94519	-272.03656	110.48376	-550.50885	-212.46178	272.82874	-621.3429	-356.88168	85.792625	-607.4292	-178.45303	56.898254	-613.76062	-105.19801	38.273865	-630.16693	-164.73988	39.375946	-561.87384
167	1.66	-355.30899	147.38829	-608.59088	-289.11041	103.33167	-671.94678	-271.9953	110.49014	-550.51038	-212.33748	272.81079	-621.29211	-356.91232	85.835304	-607.41479	-178.4563	56.908108	-613.75891	-105.20074	38.291973	-630.18433	-164.73041	39.382442	-561.8761
168	1.67	-355.26071	147.43512	-608.6037	-289.10379	103.33968	-671.93109	-272.01831	110.4511	-550.47125	-212.1866	272.74741	-621.23242	-356.88281	85.842453	-607.39716	-178.44562	56.87278	-613.7478	-105.1884	38.245052	-630.15289	-164.75154	39.363419	-561.85999
169	1.68	-355.26785	147.41655	-608.67737	-289.10754	103.35175	-671.90851	-272.00961	110.45268	-550.46564	-212.04063	272.6871	-621.17462	-356.90433	85.867493	-607.3606	-178.44843	56.883072	-613.73389	-105.22333	38.250084	-630.15649	-164.75313	39.338097	-561.84814
170	1.69	-355.27045	147.53322	-608.72015	-289.10187	103.37551	-671.8847	-272.01404	110.46307	-550.43713	-211.86855	272.67133	-621.13403	-356.89343	85.875534	-607.32745	-178.45627	56.899696	-613.72577	-105.23388	38.267723	-630.16528	-164.74335	39.338615	-561.86017
171	1.7	-355.24435	147.62001	-608.73169	-289.06079	103.40838	-671.88525	-271.99854	110.44556	-550.4162	-211.71637	272.61182	-621.05737	-356.88379	85.896812	-607.29083	-178.45584	56.914734	-613.71704	-105.18062	38.259144	-630.14319	-164.74867	39.361515	-561.85797
172	1.71	-355.21423	147.57455	-608.81293	-289.10043	103.36659	-671.87024	-271.98138	110.41772	-550.40198	-211.56352	272.5372	-620.99286	-356.8446	85.876823	-607.33154	-178.4343	56.870995	-613.71558	-105.17641	38.222149	-630.16339	-164.74641	39.295479	-561.8512
173	1.72	-355.23947	147.63997	-608.93976	-289.10516	103.37921	-671.86334	-272.01266	110.42143	-550.35315	-211.35536	272.52097	-620.96808	-356.86371	85.874504	-607.33508	-178.45845	56.859768	-613.70239	-105.22459	38.230907	-630.13867	-164.77132	39.287003	-561.85516
174	1.73	-355.2327	147.75122	-608.93939	-289.07489	103.46374	-671.84088	-271.96051	110.4877	-550.34003	-211.04803	272.54437	-620.87152	-356.87143	85.931168	-607.20856	-178.43599	56.912346	-613.70514	-105.20609	38.272354	-630.13525	-164.75876	39.345436	-561.83472
175	1.74	-355.16473	147.77512	-608.90295	-289.05719	103.43279	-671.8302	-271.96326	110.41335	-550.30182	-210.86974	272.4082	-620.85303	-356.82248	85.914352	-607.28687	-178.43486	56.875999	-613.68817	-105.20142	38.237778	-630.11011	-164.7419	39.306499	-561.81952
176	1.75	-355.15283	147.79794	-609.0108	-289.05432	103.39995	-671.82532	-272.00137	110.37623	-550.26898	-210.70129	272.31525	-620.82434	-356.84872	85.886902	-607.31134	-178.45253	56.859768	-613.69122	-105.2056	38.202332	-630.12006	-164.75775	39.24192	-561.8385
177	1.76	-355.14908	147.91882	-609.05695	-289.05716	103.45496	-671.80524	-272.00043	110.40241	-550.24817	-210.56166	272.3064	-620.75287	-356.86877	85.951698	-607.15259	-178.46165	56.899021	-613.65796	-105.17248	38.240417	-630.11255	-164.76224	39.292236	-561.82013
